/* XPM */
static char * Door (5)_xpm[] = {
"103 154 7 1",
" 	c None",
".	c #424242",
"+	c #362420",
"@	c #2B1B18",
"#	c #212121",
"$	c #616161",
"%	c #757575",
"                                                                                                       ",
"                                                                                                       ",
"                                                                                                       ",
"                                                                                                       ",
"                                        ........................                                       ",
"                                        ........................                                       ",
"                                        ........................                                       ",
"                            ............++++++++++++++++++++++++............                           ",
"                            ............++++++++++++++++++++++++............                           ",
"                            ............++++++++++++++++++++++++............                           ",
"                      ......++++++++++++++++++++++++++++++++++++++++++++++++......                     ",
"                      ......++++++++++++++++++++++++++++++++++++++++++++++++......                     ",
"                      ......++++++++++++++++++++++++++++++++++++++++++++++++......                     ",
"                ......++++++++++++@@@++++++++++++++++++++++++++++++@@@++++++++++++......               ",
"                ......++++++++++++@@@++++++++++++++++++++++++++++++@@@++++++++++++......               ",
"                ......++++++++++++@@@++++++++++++++++++++++++++++++@@@++++++++++++......               ",
"             ...++++++++++++++++++@@@++++++@@@++++++++++++@@@++++++@@@++++++++++++++++++...            ",
"             ...++++++++++++++++++@@@++++++@@@++++++++++++@@@++++++@@@++++++++++++++++++...            ",
"             ...++++++++++++++++++@@@++++++@@@++++++++++++@@@++++++@@@++++++++++++++++++...            ",
"          ...+++@@@++++++@@@++++++@@@++++++@@@++++++++++++@@@++++++@@@++++++@@@++++++@@@+++...         ",
"          ...+++@@@++++++@@@++++++@@@++++++@@@++++++++++++@@@++++++@@@++++++@@@++++++@@@+++...         ",
"          ...+++@@@++++++@@@++++++@@@++++++@@@++++++++++++@@@++++++@@@++++++@@@++++++@@@+++...         ",
"       ...++++++@@@++++++@@@++++++@@@++++++@@@++++++++++++@@@++++++@@@++++++@@@++++++@@@++++++...      ",
"       ...++++++@@@++++++@@@++++++@@@++++++@@@++++++++++++@@@++++++@@@++++++@@@++++++@@@++++++...      ",
"       ...++++++@@@++++++@@@++++++@@@++++++@@@++++++++++++@@@++++++@@@++++++@@@++++++@@@++++++...      ",
"       ...++++++@@@++++++@@@++++++@@@++++++@@@++++++++++++@@@++++++@@@++++++@@@++++++@@@++++++...      ",
"       ...++++++@@@++++++@@@++++++@@@++++++@@@++++++++++++@@@++++++@@@++++++@@@++++++@@@++++++...      ",
"       ...++++++@@@++++++@@@++++++@@@++++++@@@++++++++++++@@@++++++@@@++++++@@@++++++@@@++++++...      ",
"    ...+++++++++@@@++++++@@@++++++@@@++++++@@@++++++++++++@@@++++++@@@++++++@@@++++++@@@+++++++++...   ",
"    ...+++++++++@@@++++++@@@++++++@@@++++++@@@++++++++++++@@@++++++@@@++++++@@@++++++@@@+++++++++...   ",
"    ...+++++++++@@@++++++@@@++++++@@@++++++@@@++++++++++++@@@++++++@@@++++++@@@++++++@@@+++++++++...   ",
"    ...++++++@@@+++++++++@@@++++++@@@++++++@@@++++++++++++@@@++++++@@@++++++@@@+++++++++@@@++++++...   ",
"    ...++++++@@@+++++++++@@@++++++@@@++++++@@@++++++++++++@@@++++++@@@++++++@@@+++++++++@@@++++++...   ",
"    ...++++++@@@+++++++++@@@++++++@@@++++++@@@++++++++++++@@@++++++@@@++++++@@@+++++++++@@@++++++...   ",
"    ...++++++@@@+++++++++@@@+++@@@+++++++++@@@@@@++++++@@@@@@+++++++++@@@+++@@@+++++++++@@@++++++...   ",
"    ...++++++@@@+++++++++@@@+++@@@+++++++++@@@@@@++++++@@@@@@+++++++++@@@+++@@@+++++++++@@@++++++...   ",
"    ...++++++@@@+++++++++@@@+++@@@+++++++++@@@@@@++++++@@@@@@+++++++++@@@+++@@@+++++++++@@@++++++...   ",
"    ...............++++++@@@+++@@@++++++++++++@@@++++++@@@++++++++++++@@@+++@@@+++++++++@@@++++++...   ",
"    ...............++++++@@@+++@@@++++++++++++@@@++++++@@@++++++++++++@@@+++@@@+++++++++@@@++++++...   ",
"    ...............++++++@@@+++@@@++++++++++++@@@++++++@@@++++++++++++@@@+++@@@+++++++++@@@++++++...   ",
"    .....................@@@+++@@@++++++++++++@@@++++++@@@++++++++++++@@@+++@@@+++++++++@@@++++++...   ",
"    .....................@@@+++@@@++++++++++++@@@++++++@@@++++++++++++@@@+++@@@+++++++++@@@++++++...   ",
"    .....................@@@+++@@@++++++++++++@@@++++++@@@++++++++++++@@@+++@@@+++++++++@@@++++++...   ",
"    ......###......###......+++@@@++++++++++++++++++++++++++++++++++++@@@+++@@@+++++++++@@@++++++...   ",
"    ......###......###......+++@@@++++++++++++++++++++++++++++++++++++@@@+++@@@+++++++++@@@++++++...   ",
"    ......###......###......+++@@@++++++++++++++++++++++++++++++++++++@@@+++@@@+++++++++@@@++++++...   ",
"    .....................@@@+++@@@+++++++++@@@++++++++++++@@@+++++++++@@@+++@@@++++++++++++++++++...   ",
"    .....................@@@+++@@@+++++++++@@@++++++++++++@@@+++++++++@@@+++@@@++++++++++++++++++...   ",
"    .....................@@@+++@@@+++++++++@@@++++++++++++@@@+++++++++@@@+++@@@++++++++++++++++++...   ",
"    ...............++++++@@@@@@+++++++++@@@++++++++++++++++++@@@+++++++++@@@@@@++++++++++++++++++...   ",
"    ...............++++++@@@@@@+++++++++@@@++++++++++++++++++@@@+++++++++@@@@@@++++++++++++++++++...   ",
"    ...............++++++@@@@@@+++++++++@@@++++++++++++++++++@@@+++++++++@@@@@@++++++++++++++++++...   ",
"    ...+++++++++@@@++++++@@@++++++++++++@@@++++++++++++++++++@@@++++++++++++@@@++++++@@@+++++++++...   ",
"    ...+++++++++@@@++++++@@@++++++++++++@@@++++++++++++++++++@@@++++++++++++@@@++++++@@@+++++++++...   ",
"    ...+++++++++@@@++++++@@@++++++++++++@@@++++++++++++++++++@@@++++++++++++@@@++++++@@@+++++++++...   ",
"    ...++++++@@@+++++++++@@@++++++++++++@@@+++@@@++++++@@@+++@@@++++++++++++@@@+++++++++@@@++++++...   ",
"    ...++++++@@@+++++++++@@@++++++++++++@@@+++@@@++++++@@@+++@@@++++++++++++@@@+++++++++@@@++++++...   ",
"    ...++++++@@@+++++++++@@@++++++++++++@@@+++@@@++++++@@@+++@@@++++++++++++@@@+++++++++@@@++++++...   ",
"    ...++++++@@@+++++++++@@@++++++++++++@@@+++@@@++++++@@@+++@@@++++++++++++@@@+++++++++@@@++++++...   ",
"    ...++++++@@@+++++++++@@@++++++++++++@@@+++@@@++++++@@@+++@@@++++++++++++@@@+++++++++@@@++++++...   ",
"    ...++++++@@@+++++++++@@@++++++++++++@@@+++@@@++++++@@@+++@@@++++++++++++@@@+++++++++@@@++++++...   ",
"    ...++++++@@@++++++++++++++++++++++++@@@+++@@@++++++@@@+++@@@++++++++++++++++++++++++@@@++++++...   ",
"    ...++++++@@@++++++++++++++++++++++++@@@+++@@@++++++@@@+++@@@++++++++++++++++++++++++@@@++++++...   ",
"    ...++++++@@@++++++++++++++++++++++++@@@+++@@@++++++@@@+++@@@++++++++++++++++++++++++@@@++++++...   ",
"    ...++++++@@@++++++++++++++++++++++++@@@++++++++++++++++++@@@++++++++++++++++++++++++@@@++++++...   ",
"    ...++++++@@@++++++++++++++++++++++++@@@++++++++++++++++++@@@++++++++++++++++++++++++@@@++++++...   ",
"    ...++++++@@@++++++++++++++++++++++++@@@++++++++++++++++++@@@++++++++++++++++++++++++@@@++++++...   ",
"    ...++++++@@@+++++++++++++++++++++@@@++++++++++++++++++++++++@@@+++++++++++++++++++++@@@++++++...   ",
"    ...++++++@@@+++++++++++++++++++++@@@++++++++++++++++++++++++@@@+++++++++++++++++++++@@@++++++...   ",
"    ...++++++@@@+++++++++++++++++++++@@@++++++++++++++++++++++++@@@+++++++++++++++++++++@@@++++++...   ",
"    ...++++++@@@+++++++++++++++++++++@@@++++++++++++++++++++++++@@@+++++++++++++++++++++@@@++++++...   ",
"    ...++++++@@@+++++++++++++++++++++@@@++++++++++++++++++++++++@@@+++++++++++++++++++++@@@++++++...   ",
"    ...++++++@@@+++++++++++++++++++++@@@++++++++++++++++++++++++@@@+++++++++++++++++++++@@@++++++...   ",
"    ...++++++@@@++++++@@@++++++++++++@@@++++++@@@++++++@@@++++++@@@++++++++++++@@@++++++@@@++++++...   ",
"    ...++++++@@@++++++@@@++++++++++++@@@++++++@@@++++++@@@++++++@@@++++++++++++@@@++++++@@@++++++...   ",
"    ...++++++@@@++++++@@@++++++++++++@@@++++++@@@++++++@@@++++++@@@++++++++++++@@@++++++@@@++++++...   ",
"    ...++++++@@@++++++@@@++++++++++++@@@++++++@@@++++++@@@++++++@@@++++++++++++@@@++++++@@@++++++...   ",
"    ...++++++@@@++++++@@@++++++++++++@@@++++++@@@++++++@@@++++++@@@++++++++++++@@@++++++@@@++++++...   ",
"    ...++++++@@@++++++@@@++++++++++++@@@++++++@@@++++++@@@++++++@@@++++++++++++@@@++++++@@@++++++...   ",
"    ...+++++++++@@@+++@@@+++++++++@@@+++++++++@@@++++++@@@+++++++++@@@+++++++++@@@+++@@@+++++++++...   ",
"    ...+++++++++@@@+++@@@+++++++++@@@+++++++++@@@++++++@@@+++++++++@@@+++++++++@@@+++@@@+++++++++...   ",
"    ...+++++++++@@@+++@@@+++++++++@@@+++++++++@@@++++++@@@+++++++++@@@+++++++++@@@+++@@@+++++++++...   ",
"    ...+++++++++++++++@@@+++++++++++++++++++++@@@++++++@@@+++++++++++++++++++++@@@+++++++++++++++...   ",
"    ...+++++++++++++++@@@+++++++++++++++++++++@@@++++++@@@+++++++++++++++++++++@@@+++++++++++++++...   ",
"    ...+++++++++++++++@@@+++++++++++++++++++++@@@++++++@@@+++++++++++++++++++++@@@+++++++++++++++...   ",
"    ...+++++++++++++++@@@+++++++++++++++++++++@@@++++++@@@++++++++++++++++++$$$$$$$$$$$$$$$++++++...   ",
"    ...+++++++++++++++@@@+++++++++++++++++++++@@@++++++@@@++++++++++++++++++$$$$$$$$$$$$$$$++++++...   ",
"    ...+++++++++++++++@@@+++++++++++++++++++++@@@++++++@@@++++++++++++++++++$$$$$$$$$$$$$$$++++++...   ",
"    ...+++++++++++++++@@@+++++++++++++++++++++@@@++++++@@@++++++++++++++++++$$$%%%%%%%%%$$$++++++...   ",
"    ...+++++++++++++++@@@+++++++++++++++++++++@@@++++++@@@++++++++++++++++++$$$%%%%%%%%%$$$++++++...   ",
"    ...+++++++++++++++@@@+++++++++++++++++++++@@@++++++@@@++++++++++++++++++$$$%%%%%%%%%$$$++++++...   ",
"    ...+++++++++++++++@@@++++++++++++++++++@@@++++++++++++@@@++++++++++++++++++%%%%%%%%%+++++++++...   ",
"    ...+++++++++++++++@@@++++++++++++++++++@@@++++++++++++@@@++++++++++++++++++%%%%%%%%%+++++++++...   ",
"    ...+++++++++++++++@@@++++++++++++++++++@@@++++++++++++@@@++++++++++++++++++%%%%%%%%%+++++++++...   ",
"    ...+++++++++@@@+++@@@++++++@@@+++++++++@@@++++++++++++@@@+++++++++@@@+++$$$%%%%%%%%%$$$++++++...   ",
"    ...+++++++++@@@+++@@@++++++@@@+++++++++@@@++++++++++++@@@+++++++++@@@+++$$$%%%%%%%%%$$$++++++...   ",
"    ...+++++++++@@@+++@@@++++++@@@+++++++++@@@++++++++++++@@@+++++++++@@@+++$$$%%%%%%%%%$$$++++++...   ",
"    ...+++++++++@@@+++@@@++++++@@@+++++++++@@@++++++++++++@@@+++++++++@@@+++$$$@@@+++@@@$$$++++++...   ",
"    ...+++++++++@@@+++@@@++++++@@@+++++++++@@@++++++++++++@@@+++++++++@@@+++$$$@@@+++@@@$$$++++++...   ",
"    ...+++++++++@@@+++@@@++++++@@@+++++++++@@@++++++++++++@@@+++++++++@@@+++$$$@@@+++@@@$$$++++++...   ",
"    ...+++++++++@@@+++@@@++++++@@@++++++++++++++++++++++++++++++++++++@@@+++$$$@@@+++@@@$$$++++++...   ",
"    ...+++++++++@@@+++@@@++++++@@@++++++++++++++++++++++++++++++++++++@@@+++$$$@@@+++@@@$$$++++++...   ",
"    ...+++++++++@@@+++@@@++++++@@@++++++++++++++++++++++++++++++++++++@@@+++$$$@@@+++@@@$$$++++++...   ",
"    ...+++++++++@@@+++@@@++++++@@@++++++++++++++++++++++++++++++++++++@@@++++++$$$$$$$$$+++++++++...   ",
"    ...+++++++++@@@+++@@@++++++@@@++++++++++++++++++++++++++++++++++++@@@++++++$$$$$$$$$+++++++++...   ",
"    ...+++++++++@@@+++@@@++++++@@@++++++++++++++++++++++++++++++++++++@@@++++++$$$$$$$$$+++++++++...   ",
"    ...++++++@@@++++++@@@+++++++++@@@++++++++++++++++++++++++++++++@@@+++++++++@@@++++++@@@++++++...   ",
"    ...++++++@@@++++++@@@+++++++++@@@++++++++++++++++++++++++++++++@@@+++++++++@@@++++++@@@++++++...   ",
"    ...++++++@@@++++++@@@+++++++++@@@++++++++++++++++++++++++++++++@@@+++++++++@@@++++++@@@++++++...   ",
"    ...++++++@@@++++++++++++++++++@@@+++++++++@@@++++++@@@+++++++++@@@++++++++++++++++++@@@++++++...   ",
"    ...++++++@@@++++++++++++++++++@@@+++++++++@@@++++++@@@+++++++++@@@++++++++++++++++++@@@++++++...   ",
"    ...++++++@@@++++++++++++++++++@@@+++++++++@@@++++++@@@+++++++++@@@++++++++++++++++++@@@++++++...   ",
"    ...++++++@@@++++++++++++++++++@@@+++++++++@@@++++++@@@+++++++++@@@++++++++++++++++++@@@++++++...   ",
"    ...++++++@@@++++++++++++++++++@@@+++++++++@@@++++++@@@+++++++++@@@++++++++++++++++++@@@++++++...   ",
"    ...++++++@@@++++++++++++++++++@@@+++++++++@@@++++++@@@+++++++++@@@++++++++++++++++++@@@++++++...   ",
"    ...++++++@@@++++++++++++++++++@@@+++++++++@@@++++++@@@+++++++++@@@++++++++++++++++++@@@++++++...   ",
"    ...++++++@@@++++++++++++++++++@@@+++++++++@@@++++++@@@+++++++++@@@++++++++++++++++++@@@++++++...   ",
"    ...++++++@@@++++++++++++++++++@@@+++++++++@@@++++++@@@+++++++++@@@++++++++++++++++++@@@++++++...   ",
"    ...++++++@@@++++++++++++++++++@@@+++++++++@@@++++++@@@+++++++++@@@++++++++++++++++++@@@++++++...   ",
"    ...++++++@@@++++++++++++++++++@@@+++++++++@@@++++++@@@+++++++++@@@++++++++++++++++++@@@++++++...   ",
"    ...++++++@@@++++++++++++++++++@@@+++++++++@@@++++++@@@+++++++++@@@++++++++++++++++++@@@++++++...   ",
"    ...............++++++@@@++++++@@@+++++++++@@@++++++@@@+++++++++@@@++++++@@@+++++++++@@@++++++...   ",
"    ...............++++++@@@++++++@@@+++++++++@@@++++++@@@+++++++++@@@++++++@@@+++++++++@@@++++++...   ",
"    ...............++++++@@@++++++@@@+++++++++@@@++++++@@@+++++++++@@@++++++@@@+++++++++@@@++++++...   ",
"    .....................@@@++++++@@@+++++++++@@@++++++@@@+++++++++@@@++++++@@@++++++@@@+++++++++...   ",
"    .....................@@@++++++@@@+++++++++@@@++++++@@@+++++++++@@@++++++@@@++++++@@@+++++++++...   ",
"    .....................@@@++++++@@@+++++++++@@@++++++@@@+++++++++@@@++++++@@@++++++@@@+++++++++...   ",
"    ......###......###......+++++++++@@@++++++@@@++++++@@@++++++@@@+++++++++@@@++++++@@@+++++++++...   ",
"    ......###......###......+++++++++@@@++++++@@@++++++@@@++++++@@@+++++++++@@@++++++@@@+++++++++...   ",
"    ......###......###......+++++++++@@@++++++@@@++++++@@@++++++@@@+++++++++@@@++++++@@@+++++++++...   ",
"    .....................@@@+++++++++@@@+++@@@++++++++++++@@@+++@@@+++++++++@@@++++++++++++++++++...   ",
"    .....................@@@+++++++++@@@+++@@@++++++++++++@@@+++@@@+++++++++@@@++++++++++++++++++...   ",
"    .....................@@@+++++++++@@@+++@@@++++++++++++@@@+++@@@+++++++++@@@++++++++++++++++++...   ",
"    ...............++++++@@@+++++++++@@@++++++++++++++++++++++++@@@+++++++++@@@+++++++++@@@++++++...   ",
"    ...............++++++@@@+++++++++@@@++++++++++++++++++++++++@@@+++++++++@@@+++++++++@@@++++++...   ",
"    ...............++++++@@@+++++++++@@@++++++++++++++++++++++++@@@+++++++++@@@+++++++++@@@++++++...   ",
"    ...++++++@@@+++++++++@@@++++++++++++++++++@@@++++++@@@++++++++++++++++++@@@+++++++++@@@++++++...   ",
"    ...++++++@@@+++++++++@@@++++++++++++++++++@@@++++++@@@++++++++++++++++++@@@+++++++++@@@++++++...   ",
"    ...++++++@@@+++++++++@@@++++++++++++++++++@@@++++++@@@++++++++++++++++++@@@+++++++++@@@++++++...   ",
"    ...++++++@@@++++++++++++++++++++++++++++++@@@++++++@@@++++++++++++++++++++++++++++++@@@++++++...   ",
"    ...++++++@@@++++++++++++++++++++++++++++++@@@++++++@@@++++++++++++++++++++++++++++++@@@++++++...   ",
"    ...++++++@@@++++++++++++++++++++++++++++++@@@++++++@@@++++++++++++++++++++++++++++++@@@++++++...   ",
"    ...++++++++++++++++++++++++++++++++++++++++++++++++++++++++++++++++++++++++++++++++++++++++++...   ",
"    ...++++++++++++++++++++++++++++++++++++++++++++++++++++++++++++++++++++++++++++++++++++++++++...   ",
"    ...++++++++++++++++++++++++++++++++++++++++++++++++++++++++++++++++++++++++++++++++++++++++++...   ",
"    ................................................................................................   ",
"    ................................................................................................   ",
"    ................................................................................................   ",
"    ................................................................................................   ",
"    ................................................................................................   ",
"    ................................................................................................   ",
"                                                                                                       ",
"                                                                                                       ",
"                                                                                                       "};
